<svg xmlns="http://www.w3.org/2000/svg" xmlns:xlink="http://www.w3.org/1999/xlink" width="184" height="184" viewBox="0 0 184 184">
    <defs>
        <filter id="ixyrh2wiia" width="183.3%" height="183.3%" x="-41.7%" y="-38.3%" filterUnits="objectBoundingBox">
            <feOffset dy="2" in="SourceAlpha" result="shadowOffsetOuter1"/>
            <feGaussianBlur in="shadowOffsetOuter1" result="shadowBlurOuter1" stdDeviation="2"/>
            <feColorMatrix in="shadowBlurOuter1" result="shadowMatrixOuter1" values="0 0 0 0 0.00784313725 0 0 0 0 0.0509803922 0 0 0 0 0.219607843 0 0 0 0.100558621 0"/>
            <feOffset dy="4" in="SourceAlpha" result="shadowOffsetOuter2"/>
            <feGaussianBlur in="shadowOffsetOuter2" result="shadowBlurOuter2" stdDeviation="16"/>
            <feColorMatrix in="shadowBlurOuter2" result="shadowMatrixOuter2" values="0 0 0 0 0.00784313725 0 0 0 0 0.0509803922 0 0 0 0 0.219607843 0 0 0 0.256649844 0"/>
            <feMerge>
                <feMergeNode in="shadowMatrixOuter1"/>
                <feMergeNode in="shadowMatrixOuter2"/>
            </feMerge>
        </filter>
        <circle id="u1oxwug0db" cx="60" cy="60" r="60"/>
    </defs>
    <g fill="none" fill-rule="evenodd">
        <g>
            <g>
                <g transform="translate(-868 20) translate(900 8)">
                    <use fill="#000" filter="url(#ixyrh2wiia)" xlink:href="#u1oxwug0db"/>
                    <use fill="#FFF" xlink:href="#u1oxwug0db"/>
                </g>
                <path fill="#FFEC00" d="M60 4C29.19 4 4 29.142 4 59.98 4 90.858 29.19 116 60 116c30.85 0 56-25.142 56-56.02C116 29.142 90.85 4 60 4" transform="translate(-868 20) translate(900 8)"/>
                <path fill="#04196C" d="M14.352 64.247c2 0 3.607-1.607 3.607-3.607s-1.607-3.608-3.607-3.608-3.608 1.608-3.608 3.608 1.608 3.607 3.608 3.607M105.4 64.247c-2 0-3.609-1.607-3.609-3.607s1.609-3.608 3.608-3.608c2 0 3.608 1.608 3.608 3.608s-1.608 3.607-3.608 3.607M51.955 9.958c.745-.117 1.294-.078 1.608.079.353.156.588.548.745 1.175L56.7 9.997l-.55-3.096L45.8 8.704l-.47 2.43c.391-.078.705-.078.94-.04.236.04.393.157.51.314.157.157.235.353.314.666.078.275.157.667.235 1.098l1.098 6.232c.079.471.079.863 0 1.098-.078.274-.353.47-.784.627l-.47 2.391 6.626-1.136.47-2.43-.274.078c-.431.078-.745.078-.98.039-.236-.04-.432-.118-.55-.275-.156-.156-.274-.392-.352-.666-.04-.314-.118-.666-.196-1.098l-.275-1.528.432-.118c.235-.039.431-.039.588-.078.196 0 .313.039.431.078.079.079.196.157.235.314.079.156.118.353.157.627l.118.549 2.47-1.176-.862-4.86-2.47 1.176c.038.274 0 .47-.118.587-.118.118-.353.236-.667.275l-.745.118-.431-2.353c-.118-.587-.079-.98.078-1.175.118-.235.51-.392 1.098-.51M72.815 8.43c-.549-.157-1.176-.275-1.764-.393-1.059-.195-2.078-.274-2.941-.313-.902 0-1.765.156-2.627.51-1.176.509-2.117 1.254-2.902 2.273-.745 1.019-1.254 2.273-1.529 3.802-.196 1.137-.196 2.234 0 3.175.157.98.51 1.842 1.058 2.587.51.745 1.216 1.372 2.04 1.842.862.51 1.882.862 3.098 1.058.666.118 1.333.157 2 .157.665-.039 1.332-.117 2.038-.274l1.608-3.293c-.745.118-1.49.157-2.235.196-.746 0-1.49-.04-2.196-.196-1.451-.235-2.392-.783-2.94-1.685-.511-.863-.629-2.117-.315-3.764.118-.783.275-1.41.47-1.92.197-.51.471-.94.746-1.215.313-.313.706-.51 1.137-.588.431-.078.94-.078 1.53.04.47.078.822.156 1.097.274.274.117.47.235.588.431.118.156.157.392.157.705 0 .275-.039.667-.117 1.098l-.04.353 3.098-.628.117-.94c.04-.314.119-.588.157-.823.04-.314.078-.588.158-.902.078-.313.156-.667.234-1.019-.588-.235-1.137-.43-1.725-.548M37.016 98.308c-.196.314-.393.548-.55.705-.156.157-.313.235-.47.275h-.039c-.157 0-.314 0-.431-.079-.196-.039-.392-.157-.588-.274-.079-.079-.353-.274-.784-.588l1.45-2.273.353-.471.04-.078c.156-.235.313-.353.43-.392.157-.04.353.04.55.157.51.352.744.745.744 1.214 0 .471-.235 1.098-.705 1.804m3.333.823c.43-.862.51-1.685.313-2.548-.039-.274-.157-.587-.313-.823-.353-.745-1.02-1.411-1.922-1.998-.392-.275-.94-.589-1.686-1.02-.235-.157-.51-.314-.784-.47-.549-.314-1.137-.706-1.765-1.098l-1.764 1.254c.274.196.47.353.588.55.157.156.196.312.196.509-.04.196-.078.391-.235.627-.117.235-.275.51-.51.862L29.41 99.68c-.236.352-.47.627-.667.744-.235.118-.51.079-.902-.078l-1.764 1.254 5.215 3.411 1.764-1.294-.313-.196c-.314-.196-.55-.431-.706-.588-.157-.196-.235-.392-.235-.588.039-.196.078-.43.235-.666.118-.235.314-.549.55-.902l.077-.157.235-.352c.118.039.157.078.236.156.078.04.157.079.235.157.902.588 1.765.941 2.588 1.098.431.078.823.078 1.254.039 1.138-.157 2.079-.823 2.785-1.92.156-.236.274-.432.353-.667M76.58 106.618l-2.275 1.293c.079.47 0 .824-.196 1.098-.235.235-.627.43-1.176.588-.157.038-.314.078-.55.117-.234.039-.47.039-.784.039l-.784-3.135.353-.08c.196-.038.353-.077.51-.116.118 0 .274 0 .353.039.118.039.196.117.274.275.04.117.118.274.196.509l.118.47 2.078-1.176-1.02-4.233-2.117 1.176c.04.235 0 .431-.117.549-.08.117-.275.196-.589.274l-.588.157-.509-2.077c-.118-.51-.118-.863-.04-1.059.118-.196.432-.352.98-.51.628-.156 1.099-.156 1.412-.039.314.157.55.47.706 1.02l2-1.216-.667-2.743-8.979 2.273-.275 2.156c.353-.118.628-.118.824-.118.196.04.353.118.51.236.117.156.195.352.313.588.078.274.157.587.275.98l1.332 5.409c.119.43.119.783.08 1.019-.08.234-.275.43-.668.588l-.274 2.194 9.92-2.469.393-.118-.392-1.529-.628-2.43zM93.518 99.288c-.078.039-.078.078-.117.078 0 .04-.04.04-.04.078-.196.118-.431.196-.666.196-.275.04-.51 0-.824-.078-.314-.039-.667-.157-1.058-.274-.393-.118-.824-.275-1.294-.432-.431-.156-.863-.313-1.216-.47-.391-.157-.745-.274-1.098-.431-.352-.117-.666-.235-.98-.314-.314-.078-.627-.117-.902-.117l.196-1.411c.118-.901.275-1.647.431-2.156.197-.549.392-.901.706-1.097h.04l-.432-2.157-3.802 2.47.43 2.156c.353-.196.549-.196.667-.039.078.117.078.274.078.509 0 .236 0 .51-.039.902l-.274 3.018-1.373-2.078c-.275-.43-.392-.744-.392-1.018 0-.236.157-.51.51-.785l-.432-2.116-4.43 2.861-.393.275.393 1.842.04.274c.313-.196.548-.313.744-.352.196-.04.392 0 .548.078.158.078.314.235.472.43.196.236.353.51.587.824l3.059 4.704c.235.392.353.666.393.94 0 .236-.119.47-.432.785l.432 2.116 5.214-3.37-.431-2.156-.314.195c-.314.235-.589.353-.823.432-.235.078-.432.078-.589 0-.157-.079-.353-.197-.51-.432-.156-.195-.352-.47-.587-.823l-.157-.274-1.02-1.568c.392 0 .824.039 1.294.196.51.157 1.06.313 1.686.549.588.235 1.294.51 2.079.823.784.314 1.647.666 2.588.98l2.47-1.607-.432-2.156zM51.634 94.531c-.392-.118-.706-.118-1.02 0-.313.117-.627.274-.98.431l-3.842 1.96 1.058.392 4-.432c.43-.039.784-.116 1.02-.235.235-.117.391-.313.51-.588.117-.353.078-.666-.04-.94-.118-.275-.353-.47-.706-.588M61.209 107.245c-.353-.392-.745-.745-1.255-1.059-.47-.313-1.058-.666-1.765-.98-.353-.195-.666-.352-.941-.509-.313-.118-.51-.274-.705-.431-.196-.156-.314-.353-.392-.51-.079-.195-.118-.43-.079-.666.04-.391.196-.745.51-.941.274-.235.666-.313 1.176-.274.706.04 1.138.235 1.333.548.196.314.275.824.236 1.49l-.079.588 2.353-1.058.274-3.057h-.392c-.706-.079-1.333-.158-1.843-.236-.549-.078-.98-.117-1.333-.157-1.608-.157-2.862.04-3.725.588-.863.51-1.373 1.45-1.49 2.822-.118 1.569.588 2.744 2.078 3.607.55.274 1.02.548 1.49.744.47.235.863.432 1.216.667.313.235.588.51.745.784.196.274.275.627.235 1.058-.04.431-.235.784-.627 1.059-.353.274-.824.392-1.373.352-.392-.039-.705-.117-.94-.274-.236-.157-.393-.353-.51-.588-.118-.236-.196-.549-.236-.94 0-.393 0-.824.04-1.334 0-.117.039-.235.039-.352.039-.118.039-.236.039-.392l-2.392 1.057-.353 4.156c.314.04.549.04.745.078h.353c.274.04.706.117 1.216.196.548.118 1.254.195 2.078.275 1.568.117 2.783-.08 3.646-.667.824-.588 1.294-1.529 1.412-2.822.039-.588 0-1.097-.118-1.568-.117-.431-.353-.862-.666-1.254M43.72 99.17c.314.118.589.235.746.353.157.157.235.314.274.47.04.196 0 .432-.039.667-.078.274-.196.588-.313.98l-1.843 5.291c-.118.392-.275.706-.432.862-.156.196-.392.236-.745.196l-1.02 1.176-.392.51.393.117 4.744 1.647 1.451-1.647c-.353-.117-.588-.234-.745-.391-.156-.118-.235-.275-.274-.471-.04-.157-.04-.391.039-.627.079-.235.156-.549.274-.902l.118-.352 1.764-5.057c.118-.43.275-.705.432-.862.156-.156.392-.235.705-.196l1.412-1.646-5.136-1.764-1.412 1.646z" transform="translate(-868 20) translate(900 8)"/>
                <path fill="#121619" d="M59.876 24.566c-19.463.002-35.307 15.878-35.31 35.29.002 19.45 15.847 35.326 35.31 35.328 19.423-.003 35.306-15.878 35.309-35.328-.004-19.413-15.886-35.287-35.31-35.29" transform="translate(-868 20) translate(900 8)"/>
                <path fill="#FFF" d="M88.294 41.783l-2.577 7.82-12.16 3.45-14.127-9.965-.061-11.107 6.445-5.295c6.902 1.24 13.093 4.597 17.872 9.373 1.734 1.733 3.28 3.653 4.608 5.724M36.05 36.059c4-4.002 8.995-7.007 14.574-8.606l6.94 4.615.06 10.752-13.99 10.744-10.301-2.06-2.864-8.09c1.521-2.7 3.402-5.176 5.581-7.355M26.214 57.96l6.612-4.716 10.279 2.055L48.8 71.668l-6.13 10.083-8.193.25c-5.178-5.936-8.319-13.685-8.319-22.145 0-.636.02-1.268.055-1.895M46.53 90.826l-2.6-7.671 6.075-9.993 17.883-.538L73.481 83.5l-2.945 8.352c-3.354 1.126-6.939 1.738-10.66 1.738-4.739 0-9.25-.987-13.347-2.765M84.615 82.716l-9.713-.399-5.666-11.02 4.859-16.52 11.847-3.36 7.537 5.7c.074.904.112 1.817.112 2.739 0 8.804-3.41 16.838-8.976 22.86" transform="translate(-868 20) translate(900 8)"/>
            </g>
        </g>
    </g>
</svg>
