<svg xmlns="http://www.w3.org/2000/svg" width="14" height="16" viewBox="0 0 14 16">
    <g fill="none" fill-rule="evenodd">
        <g fill="#052291" fill-rule="nonzero">
            <g>
                <g>
                    <g>
                        <path d="M.375 6h13.25c.206 0 .375.169.375.375V14.5c0 .828-.672 1.5-1.5 1.5h-11C.672 16 0 15.328 0 14.5V6.375C0 6.169.169 6 .375 6zM14 4.625V3.5c0-.828-.672-1.5-1.5-1.5H11V.375C11 .169 10.831 0 10.625 0h-1.25C9.169 0 9 .169 9 .375V2H5V.375C5 .169 4.831 0 4.625 0h-1.25C3.169 0 3 .169 3 .375V2H1.5C.672 2 0 2.672 0 3.5v1.125C0 4.831.169 5 .375 5h13.25c.206 0 .375-.169.375-.375z" transform="translate(-328 -3086) translate(328 3050) translate(0 33) translate(0 3)"/>
                    </g>
                </g>
            </g>
        </g>
    </g>
</svg>
