<svg xmlns="http://www.w3.org/2000/svg" width="16" height="14" viewBox="0 0 16 14">
    <g fill="none" fill-rule="evenodd">
        <g fill="#052291" fill-rule="nonzero">
            <g>
                <g>
                    <g>
                        <path d="M16 3.5v9c0 .828-.672 1.5-1.5 1.5h-13C.672 14 0 13.328 0 12.5v-9C0 2.672.672 2 1.5 2h2.75L4.634.972C4.854.387 5.412 0 6.037 0H9.96c.625 0 1.185.388 1.404.972L11.75 2h2.75c.828 0 1.5.672 1.5 1.5zM11.75 8c0-2.069-1.681-3.75-3.75-3.75S4.25 5.931 4.25 8 5.931 11.75 8 11.75s3.75-1.681 3.75-3.75zm-1 0c0 1.516-1.234 2.75-2.75 2.75S5.25 9.516 5.25 8 6.484 5.25 8 5.25 10.75 6.484 10.75 8z" transform="translate(-555 -3087) translate(328 3050) translate(227 33) translate(0 4)"/>
                    </g>
                </g>
            </g>
        </g>
    </g>
</svg>
