<svg xmlns="http://www.w3.org/2000/svg" width="16" height="16" viewBox="0 0 16 16">
    <g fill="none" fill-rule="evenodd">
        <g fill="#FFF" fill-rule="nonzero">
            <g>
                <path d="M11.563 5.282v-1.98l-.197-.031-.193-.027-.242-.029-.208-.021-.148-.014-.233-.017-.16-.009-.164-.006-.164-.004h-.082c-1.828 0-3.022 1.115-3.022 3.131v1.773H4.719v2.327H6.75V16l-.122-.02C2.863 15.325 0 12.024 0 8.049 0 3.603 3.581 0 8 0c4.419 0 8 3.603 8 8.049 0 3.975-2.863 7.276-6.628 7.93L9.25 16v-5.625h1.864l.355-2.326H9.25v-1.51c0-.618.292-1.222 1.22-1.256l.083-.001h1.01z" transform="translate(-784 -12) translate(784 12)"/>
            </g>
        </g>
    </g>
</svg>
