<svg xmlns="http://www.w3.org/2000/svg" width="16" height="16" viewBox="0 0 16 16">
    <g fill="none" fill-rule="evenodd">
        <g fill="#FFF">
            <g>
                <path d="M0 8c0-4.418 3.582-8 8-8s8 3.582 8 8-3.582 8-8 8-8-3.582-8-8zm8-4.267c-1.158 0-1.304.005-1.759.026-.454.02-.764.093-1.035.198-.281.11-.52.255-.756.492-.238.237-.383.476-.493.756-.106.271-.178.582-.198 1.036-.02.455-.026.6-.026 1.759 0 1.159.006 1.304.026 1.759.021.454.093.764.198 1.035.11.281.255.52.492.756.237.238.476.384.756.493.271.105.582.177 1.036.198.455.02.6.026 1.759.026 1.159 0 1.304-.005 1.759-.026.454-.02.764-.093 1.036-.198.28-.11.518-.255.755-.493.238-.237.383-.475.493-.755.105-.272.177-.582.198-1.036.02-.455.026-.6.026-1.759 0-1.159-.006-1.304-.026-1.76-.021-.454-.093-.764-.198-1.035-.11-.28-.255-.519-.493-.756-.237-.237-.474-.383-.755-.492-.272-.105-.583-.177-1.037-.198-.455-.02-.6-.026-1.759-.026H8z" transform="translate(-1056 -12) translate(1056 12)"/>
                <path d="M7.618 4.502H8c1.14 0 1.275.004 1.725.025.415.019.641.088.792.147.199.077.34.17.49.319.15.15.242.291.32.49.058.15.127.377.146.793.02.45.025.584.025 1.723 0 1.139-.004 1.274-.025 1.724-.019.416-.088.641-.147.792-.077.199-.17.34-.319.49-.15.15-.291.242-.49.319-.15.059-.377.128-.792.147-.45.02-.585.025-1.725.025-1.139 0-1.274-.005-1.724-.025-.416-.02-.641-.089-.792-.147-.2-.078-.341-.17-.49-.32-.15-.149-.242-.29-.32-.49-.058-.15-.128-.376-.147-.792-.02-.45-.024-.585-.024-1.724 0-1.14.004-1.274.024-1.724.02-.416.089-.641.147-.792.077-.199.17-.341.32-.49.149-.15.29-.242.49-.32.15-.058.376-.128.792-.147.394-.018.546-.023 1.342-.024v.001zm2.66.709c-.283 0-.512.229-.512.511 0 .283.23.512.512.512.283 0 .512-.229.512-.511 0-.283-.23-.512-.512-.512zM8 5.809c-1.21 0-2.19.981-2.19 2.191s.98 2.19 2.19 2.19 2.191-.98 2.191-2.19-.98-2.191-2.19-2.191z" transform="translate(-1056 -12) translate(1056 12)"/>
                <path d="M8 6.578c.786 0 1.423.637 1.423 1.422 0 .785-.637 1.422-1.423 1.422-.785 0-1.422-.637-1.422-1.422 0-.785.637-1.422 1.422-1.422z" transform="translate(-1056 -12) translate(1056 12)"/>
            </g>
        </g>
    </g>
</svg>
