<svg xmlns="http://www.w3.org/2000/svg" width="16" height="16" viewBox="0 0 16 16">
    <g fill="none" fill-rule="evenodd">
        <g fill="#052291" fill-rule="nonzero">
            <g>
                <g>
                    <g>
                        <path d="M8 0C3.58 0 0 3.58 0 8s3.58 8 8 8 8-3.58 8-8-3.58-8-8-8zm0 3.097c1.568 0 2.839 1.27 2.839 2.838S9.568 8.775 8 8.775s-2.839-1.272-2.839-2.84c0-1.567 1.271-2.838 2.839-2.838zm0 11.097c-1.894 0-3.59-.859-4.726-2.2.607-1.142 1.794-1.93 3.178-1.93.077 0 .154.013.229.036.419.135.858.223 1.319.223.461 0 .903-.088 1.32-.223.074-.023.151-.035.228-.035 1.384 0 2.571.787 3.178 1.929-1.136 1.341-2.832 2.2-4.726 2.2z" transform="translate(-430 -3086) translate(328 3050) translate(102 33) translate(0 3)"/>
                    </g>
                </g>
            </g>
        </g>
    </g>
</svg>
